<svg width="65" height="64" viewBox="0 0 65 64" fill="none" xmlns="http://www.w3.org/2000/svg">
<path d="M17.8234 17.352C19.9354 17.352 21.7914 17.784 23.3914 18.648C24.9914 19.512 26.2234 20.744 27.0874 22.344C27.9834 23.912 28.4314 25.72 28.4314 27.768C28.4314 29.784 27.9674 31.56 27.0394 33.096C26.1434 34.632 24.8634 35.832 23.1994 36.696C21.5674 37.528 19.6794 37.944 17.5354 37.944H10.7194C10.5594 37.944 10.4794 38.024 10.4794 38.184V50.424C10.4794 50.584 10.4154 50.728 10.2874 50.856C10.1914 50.952 10.0634 51 9.90344 51H4.28744C4.12744 51 3.98344 50.952 3.85544 50.856C3.75944 50.728 3.71144 50.584 3.71144 50.424V17.928C3.71144 17.768 3.75944 17.64 3.85544 17.544C3.98344 17.416 4.12744 17.352 4.28744 17.352H17.8234ZM16.8154 32.52C18.2874 32.52 19.4714 32.104 20.3674 31.272C21.2634 30.408 21.7114 29.288 21.7114 27.912C21.7114 26.504 21.2634 25.368 20.3674 24.504C19.4714 23.64 18.2874 23.208 16.8154 23.208H10.7194C10.5594 23.208 10.4794 23.288 10.4794 23.448V32.28C10.4794 32.44 10.5594 32.52 10.7194 32.52H16.8154ZM54.1921 17.784C54.3521 17.528 54.5761 17.4 54.8641 17.4H60.4801C60.6401 17.4 60.7681 17.464 60.8641 17.592C60.9921 17.688 61.0561 17.816 61.0561 17.976V50.424C61.0561 50.584 60.9921 50.728 60.8641 50.856C60.7681 50.952 60.6401 51 60.4801 51H54.8641C54.7041 51 54.5601 50.952 54.4321 50.856C54.3361 50.728 54.2881 50.584 54.2881 50.424V29.256C54.2881 29.128 54.2561 29.064 54.1921 29.064C54.1281 29.064 54.0641 29.112 54.0001 29.208L48.9121 37.176C48.7521 37.432 48.5281 37.56 48.2401 37.56H45.4081C45.1201 37.56 44.8961 37.432 44.7361 37.176L39.6481 29.208C39.5841 29.112 39.5201 29.08 39.4561 29.112C39.3921 29.112 39.3601 29.176 39.3601 29.304V50.424C39.3601 50.584 39.2961 50.728 39.1681 50.856C39.0721 50.952 38.9441 51 38.7841 51H33.1681C33.0081 51 32.8641 50.952 32.7361 50.856C32.6401 50.728 32.5921 50.584 32.5921 50.424V17.976C32.5921 17.816 32.6401 17.688 32.7361 17.592C32.8641 17.464 33.0081 17.4 33.1681 17.4H38.7841C39.0721 17.4 39.2961 17.528 39.4561 17.784L46.6561 28.968C46.7521 29.16 46.8481 29.16 46.9441 28.968L54.1921 17.784Z" fill="#F36C6C"/>
</svg>
