<svg width="64" height="64" viewBox="0 0 64 64" fill="none" xmlns="http://www.w3.org/2000/svg">
<path d="M32.756 4.70383L32.756 4.70386L55.0077 17.6853L32 31.1065L8.99228 17.6853L31.244 4.70386L31.244 4.70383C31.4734 4.56994 31.7343 4.49939 32 4.49939C32.2657 4.49939 32.5266 4.56994 32.756 4.70383ZM34.5 58.2762V35.4338L57.5 22.0172V44V44.0001C57.5001 44.2623 57.4314 44.52 57.3009 44.7474C57.1704 44.9747 56.9825 45.1639 56.7561 45.2961C56.7561 45.2961 56.756 45.2961 56.756 45.2961L34.5 58.2762ZM6.5 44.0001V44V22.0172L29.5 35.4338V58.2762L7.244 45.2961C7.24397 45.2961 7.24393 45.2961 7.2439 45.2961C7.01748 45.1639 6.82964 44.9747 6.69912 44.7474C6.56858 44.52 6.49992 44.2623 6.5 44.0001Z" fill="#F36C6C" stroke="#457DE8"/>
</svg>
